<?xml version="1.0" standalone="no"?><!DOCTYPE svg PUBLIC "-//W3C//DTD SVG 1.1//EN" "http://www.w3.org/Graphics/SVG/1.1/DTD/svg11.dtd"><svg t="1741765199120" class="icon" viewBox="0 0 1066 1024" version="1.1" xmlns="http://www.w3.org/2000/svg" p-id="8135" xmlns:xlink="http://www.w3.org/1999/xlink" width="133.25" height="128"><path d="M927.973071 83.088459A98.037637 98.037637 0 0 0 834.831071 0H231.044114a98.050126 98.050126 0 0 0-93.778933 85.261522L8.142744 824.477797A149.579208 149.579208 0 0 0 0 871.323552a151.927116 151.927116 0 0 0 152.364226 151.415072h761.084288a151.927116 151.927116 0 0 0 152.264315-151.402583 150.341029 150.341029 0 0 0-8.205188-46.858244L927.973071 83.175881z m-14.524557 864.04254H152.301782a75.832425 75.832425 0 0 1 0-151.589916h761.184199a75.832425 75.832425 0 0 1 0 151.589916z m-38.066079-113.648726a37.978657 37.978657 0 1 0 26.863562 10.977717 37.903723 37.903723 0 0 0-26.863562-11.05265z m0 0" fill="#dbdbdb" p-id="8136"></path></svg>